<?xml version="1.0" encoding="UTF-8"?>
<!DOCTYPE svg PUBLIC "-//W3C//DTD SVG 1.1//EN" "http://www.w3.org/Graphics/SVG/1.1/DTD/svg11.dtd">
<svg xmlns="http://www.w3.org/2000/svg" version="1.1" width="512px" height="512px" style="shape-rendering:geometricPrecision; text-rendering:geometricPrecision; image-rendering:optimizeQuality; fill-rule:evenodd; clip-rule:evenodd" xmlns:xlink="http://www.w3.org/1999/xlink">
<g><path style="opacity:0.92" fill="#000000" d="M 511.5,105.5 C 511.5,120.167 511.5,134.833 511.5,149.5C 507.267,153.967 502.434,154.634 497,151.5C 496.333,150.167 495.667,148.833 495,147.5C 494.667,134.5 494.333,121.5 494,108.5C 491.833,101 487,96.1667 479.5,94C 330.167,93.3333 180.833,93.3333 31.5,94C 24,96.1667 19.1667,101 17,108.5C 16.3333,206.5 16.3333,304.5 17,402.5C 18.6748,408.841 22.5082,413.341 28.5,416C 178.778,417.662 329.111,417.995 479.5,417C 487,414.833 491.833,410 494,402.5C 494.333,324.833 494.667,247.167 495,169.5C 496.288,165.422 499.122,163.088 503.5,162.5C 506.91,163.193 509.577,164.86 511.5,167.5C 511.5,246.833 511.5,326.167 511.5,405.5C 506.034,423.12 494.034,432.953 475.5,435C 328.833,435.667 182.167,435.667 35.5,435C 16.9665,432.953 4.96649,423.12 -0.5,405.5C -0.5,305.167 -0.5,204.833 -0.5,104.5C 5.40269,87.4428 17.4027,77.9428 35.5,76C 182.167,75.3333 328.833,75.3333 475.5,76C 494.034,78.047 506.034,87.8803 511.5,105.5 Z M 382.5,193.5 C 387.547,193.337 392.547,193.671 397.5,194.5C 396.756,199.219 395.756,203.886 394.5,208.5C 382.897,207.759 376.897,213.426 376.5,225.5C 380.5,225.5 384.5,225.5 388.5,225.5C 388.05,230.202 387.383,234.868 386.5,239.5C 382.167,239.5 377.833,239.5 373.5,239.5C 370.284,256.796 367.284,274.13 364.5,291.5C 358.5,291.5 352.5,291.5 346.5,291.5C 349.242,274.124 352.242,256.79 355.5,239.5C 352.833,239.5 350.167,239.5 347.5,239.5C 347.95,234.798 348.617,230.132 349.5,225.5C 352.5,225.5 355.5,225.5 358.5,225.5C 359.311,209.131 367.311,198.464 382.5,193.5 Z M 335.5,194.5 C 347.451,194.079 351.284,199.412 347,210.5C 340.965,217.065 334.965,217.065 329,210.5C 327.062,203.389 329.229,198.056 335.5,194.5 Z M 126.5,195.5 C 132.5,195.5 138.5,195.5 144.5,195.5C 142.256,208.878 140.089,222.211 138,235.5C 146.829,225.338 157.329,222.838 169.5,228C 173.597,232.114 175.597,237.114 175.5,243C 172.896,259.52 170.229,276.02 167.5,292.5C 161.158,292.666 154.825,292.5 148.5,292C 151.802,277.823 154.468,263.489 156.5,249C 155.309,240.036 150.642,237.703 142.5,242C 139.129,245.236 136.629,249.069 135,253.5C 131.793,266.368 129.293,279.368 127.5,292.5C 121.158,292.666 114.825,292.5 108.5,292C 114.873,259.932 120.873,227.766 126.5,195.5 Z M 87.5,223.5 C 95.4994,222.782 103.166,223.949 110.5,227C 109.21,231.333 107.544,235.5 105.5,239.5C 99.6514,237.534 93.6514,237.034 87.5,238C 83.9083,240.971 83.5749,244.304 86.5,248C 93.1686,251.003 99.0019,255.169 104,260.5C 108.968,270.658 107.135,279.492 98.5,287C 87.0087,293.109 75.0087,294.109 62.5,290C 60.7774,289.477 59.444,288.477 58.5,287C 59.6415,283.24 60.9749,279.573 62.5,276C 67.8164,277.531 73.3164,278.698 79,279.5C 86.8246,279.363 89.4913,275.697 87,268.5C 80.9825,264.992 75.3159,260.992 70,256.5C 63.7911,245.086 65.9577,235.586 76.5,228C 80.1574,226.178 83.8241,224.678 87.5,223.5 Z M 211.5,223.5 C 235.29,222.457 246.457,233.79 245,257.5C 239.973,282.425 224.806,293.925 199.5,292C 186.368,287.859 179.701,278.859 179.5,265C 180.311,243.377 190.978,229.544 211.5,223.5 Z M 290.5,223.5 C 305.314,225.658 312.647,234.325 312.5,249.5C 311.925,268.171 303.592,282.004 287.5,291C 278.741,294.414 270.074,294.247 261.5,290.5C 260.327,299.873 258.827,309.206 257,318.5C 250.889,319.809 244.722,319.809 238.5,318.5C 245.13,287.384 250.464,256.05 254.5,224.5C 260.206,224.171 265.872,224.505 271.5,225.5C 270.415,228.773 270.248,232.106 271,235.5C 275.969,228.776 282.469,224.776 290.5,223.5 Z M 325.5,225.5 C 331.5,225.5 337.5,225.5 343.5,225.5C 339.885,247.192 336.051,268.859 332,290.5C 325.889,291.809 319.722,291.809 313.5,290.5C 318.014,268.929 322.014,247.262 325.5,225.5 Z M 394.5,225.5 C 400.833,225.5 407.167,225.5 413.5,225.5C 414.885,241.027 417.052,256.36 420,271.5C 426.131,256.245 431.964,240.912 437.5,225.5C 443.868,225.17 450.202,225.504 456.5,226.5C 445.1,250.967 432.933,274.967 420,298.5C 412.994,310.009 403.161,318.009 390.5,322.5C 389.353,322.182 388.519,321.516 388,320.5C 386.988,316.117 385.821,311.784 384.5,307.5C 392.895,304.602 399.728,299.602 405,292.5C 405.958,290.801 406.458,288.967 406.5,287C 402.305,266.524 398.305,246.024 394.5,225.5 Z M 385.5,272.5 C 387.282,276.577 388.115,280.91 388,285.5C 386.058,288.162 384.225,288.496 382.5,286.5C 383.29,281.748 384.29,277.081 385.5,272.5 Z"/></g>
<g><path style="opacity:0.933" fill="#000000" d="M 379.5,176.5 C 389.619,175.428 399.286,176.928 408.5,181C 411.106,182.938 412.939,185.438 414,188.5C 414.714,195.263 414.214,201.93 412.5,208.5C 417.229,208.633 421.562,209.966 425.5,212.5C 428.014,211.078 430.681,209.912 433.5,209C 444.24,208.072 454.907,208.405 465.5,210C 473.976,215.428 476.476,222.928 473,232.5C 461.845,256.143 450.178,279.477 438,302.5C 431.607,312.894 423.773,322.06 414.5,330C 406.625,335.437 397.958,338.937 388.5,340.5C 381.35,340.174 376.183,336.84 373,330.5C 370.85,323.232 369.016,315.899 367.5,308.5C 347.57,307.931 327.57,307.765 307.5,308C 305.041,307.03 302.708,305.863 300.5,304.5C 292.586,308.229 284.252,310.229 275.5,310.5C 276.057,329.946 266.724,338.612 247.5,336.5C 225.668,338.021 217.335,328.354 222.5,307.5C 208.478,311.175 194.978,309.842 182,303.5C 179.446,305.712 176.613,307.545 173.5,309C 163.167,309.667 152.833,309.667 142.5,309C 140.919,308.293 139.419,307.46 138,306.5C 136.581,307.46 135.081,308.293 133.5,309C 123.167,309.667 112.833,309.667 102.5,309C 98.3295,306.454 93.9961,306.454 89.5,309C 75.487,311.15 62.1536,309.15 49.5,303C 44.0478,299.532 41.0478,294.532 40.5,288C 42.5121,277.787 46.1788,268.287 51.5,259.5C 45.0834,236.837 52.4168,220.337 73.5,210C 84.6224,206.444 95.9557,205.61 107.5,207.5C 107.714,198.914 109.88,190.914 114,183.5C 120.615,179.099 127.948,177.432 136,178.5C 157.413,177.075 165.58,186.742 160.5,207.5C 169.597,207.968 177.431,211.301 184,217.5C 202.544,204.883 222.044,203.216 242.5,212.5C 244.952,209.941 247.952,208.441 251.5,208C 260.353,207.269 269.186,207.436 278,208.5C 289.236,205.343 300.069,206.343 310.5,211.5C 310.43,187.405 322.43,176.238 346.5,178C 351.75,178.957 356.083,181.457 359.5,185.5C 365.558,180.934 372.225,177.934 379.5,176.5 Z M 382.5,193.5 C 367.311,198.464 359.311,209.131 358.5,225.5C 355.5,225.5 352.5,225.5 349.5,225.5C 348.617,230.132 347.95,234.798 347.5,239.5C 350.167,239.5 352.833,239.5 355.5,239.5C 352.242,256.79 349.242,274.124 346.5,291.5C 352.5,291.5 358.5,291.5 364.5,291.5C 367.284,274.13 370.284,256.796 373.5,239.5C 377.833,239.5 382.167,239.5 386.5,239.5C 387.383,234.868 388.05,230.202 388.5,225.5C 384.5,225.5 380.5,225.5 376.5,225.5C 376.897,213.426 382.897,207.759 394.5,208.5C 395.756,203.886 396.756,199.219 397.5,194.5C 392.547,193.671 387.547,193.337 382.5,193.5 Z M 335.5,194.5 C 329.229,198.056 327.062,203.389 329,210.5C 334.965,217.065 340.965,217.065 347,210.5C 351.284,199.412 347.451,194.079 335.5,194.5 Z M 126.5,195.5 C 120.873,227.766 114.873,259.932 108.5,292C 114.825,292.5 121.158,292.666 127.5,292.5C 129.293,279.368 131.793,266.368 135,253.5C 136.629,249.069 139.129,245.236 142.5,242C 150.642,237.703 155.309,240.036 156.5,249C 154.468,263.489 151.802,277.823 148.5,292C 154.825,292.5 161.158,292.666 167.5,292.5C 170.229,276.02 172.896,259.52 175.5,243C 175.597,237.114 173.597,232.114 169.5,228C 157.329,222.838 146.829,225.338 138,235.5C 140.089,222.211 142.256,208.878 144.5,195.5C 138.5,195.5 132.5,195.5 126.5,195.5 Z M 87.5,223.5 C 83.8241,224.678 80.1574,226.178 76.5,228C 65.9577,235.586 63.7911,245.086 70,256.5C 75.3159,260.992 80.9825,264.992 87,268.5C 89.4913,275.697 86.8246,279.363 79,279.5C 73.3164,278.698 67.8164,277.531 62.5,276C 60.9749,279.573 59.6415,283.24 58.5,287C 59.444,288.477 60.7774,289.477 62.5,290C 75.0087,294.109 87.0087,293.109 98.5,287C 107.135,279.492 108.968,270.658 104,260.5C 99.0019,255.169 93.1686,251.003 86.5,248C 83.5749,244.304 83.9083,240.971 87.5,238C 93.6514,237.034 99.6514,237.534 105.5,239.5C 107.544,235.5 109.21,231.333 110.5,227C 103.166,223.949 95.4994,222.782 87.5,223.5 Z M 211.5,223.5 C 190.978,229.544 180.311,243.377 179.5,265C 179.701,278.859 186.368,287.859 199.5,292C 224.806,293.925 239.973,282.425 245,257.5C 246.457,233.79 235.29,222.457 211.5,223.5 Z M 290.5,223.5 C 282.469,224.776 275.969,228.776 271,235.5C 270.248,232.106 270.415,228.773 271.5,225.5C 265.872,224.505 260.206,224.171 254.5,224.5C 250.464,256.05 245.13,287.384 238.5,318.5C 244.722,319.809 250.889,319.809 257,318.5C 258.827,309.206 260.327,299.873 261.5,290.5C 270.074,294.247 278.741,294.414 287.5,291C 303.592,282.004 311.925,268.171 312.5,249.5C 312.647,234.325 305.314,225.658 290.5,223.5 Z M 325.5,225.5 C 322.014,247.262 318.014,268.929 313.5,290.5C 319.722,291.809 325.889,291.809 332,290.5C 336.051,268.859 339.885,247.192 343.5,225.5C 337.5,225.5 331.5,225.5 325.5,225.5 Z M 394.5,225.5 C 398.305,246.024 402.305,266.524 406.5,287C 406.458,288.967 405.958,290.801 405,292.5C 399.728,299.602 392.895,304.602 384.5,307.5C 385.821,311.784 386.988,316.117 388,320.5C 388.519,321.516 389.353,322.182 390.5,322.5C 403.161,318.009 412.994,310.009 420,298.5C 432.933,274.967 445.1,250.967 456.5,226.5C 450.202,225.504 443.868,225.17 437.5,225.5C 431.964,240.912 426.131,256.245 420,271.5C 417.052,256.36 414.885,241.027 413.5,225.5C 407.167,225.5 400.833,225.5 394.5,225.5 Z M 385.5,272.5 C 384.29,277.081 383.29,281.748 382.5,286.5C 384.225,288.496 386.058,288.162 388,285.5C 388.115,280.91 387.282,276.577 385.5,272.5 Z"/></g>
<g><path style="opacity:0.926" fill="#000000" d="M 212.5,237.5 C 222.091,237.091 226.758,241.758 226.5,251.5C 226.411,261.619 222.744,270.119 215.5,277C 204.379,280.388 198.712,276.221 198.5,264.5C 198.232,252.695 202.899,243.695 212.5,237.5 Z"/></g>
<g><path style="opacity:0.918" fill="#000000" d="M 279.5,239.5 C 288.523,238.023 293.19,241.856 293.5,251C 293.092,260.57 289.758,268.903 283.5,276C 277.725,280.355 271.891,280.521 266,276.5C 265.82,266.398 267.82,256.731 272,247.5C 274.028,244.308 276.528,241.641 279.5,239.5 Z"/></g>
</svg>
